<svg width="683" height="609" viewBox="0 0 683 609" fill="none" xmlns="http://www.w3.org/2000/svg">
    <g opacity="0.8">
    <path d="M384.721 12.1268C538.848 69.9087 632.374 254.523 552.262 404.114L356.748 207.809L431.41 132.964L384.697 86.5245C372.281 98.1078 356.915 106.052 340.282 109.488C323.65 112.923 306.392 111.717 290.399 106.001L141.798 254.622L225.966 338.422L282.062 282.58L477.501 478.487C381.859 530.971 249.286 514.43 151.479 412.845L104.193 460.105C116.461 478.596 130.122 496.125 145.058 512.539C143.341 514.294 141.53 515.955 139.633 517.514C136.984 516.853 134.288 516.396 131.569 516.146C119.317 516.49 107.686 521.617 99.1685 530.427C90.6512 539.237 85.9245 551.031 86.0009 563.282C86.0272 575.403 90.8584 587.02 99.4365 595.589C108.015 604.158 119.64 608.98 131.768 609C143.998 608.931 155.717 604.089 164.426 595.506C173.134 586.923 178.142 575.279 178.382 563.058C178.258 560.225 177.867 557.41 177.212 554.651L184.504 547.487C296.994 623.327 420.285 632.779 552.834 553.457L607.586 608.403L682.571 534.478L627.446 478.785C785.679 240.494 574.71 6.40577 384.547 12.1019L384.721 12.1268Z" fill="url(#paint0_linear_745_2783)" fill-opacity="0.3"/>
    <path d="M340.721 7.12676C494.848 64.9087 588.374 249.523 508.262 399.114L312.748 202.809L387.41 127.964L340.697 81.5245C328.281 93.1078 312.915 101.052 296.282 104.488C279.65 107.923 262.392 106.717 246.399 101.001L97.7979 249.622L181.966 333.422L238.062 277.58L433.501 473.487C337.859 525.971 205.286 509.43 107.479 407.845L60.1934 455.105C72.4608 473.596 86.122 491.125 101.058 507.539C99.3407 509.294 97.5296 510.955 95.6327 512.514C92.9837 511.853 90.2881 511.396 87.5693 511.146C75.3165 511.49 63.6858 516.617 55.1685 525.427C46.6512 534.237 41.9245 546.031 42.0009 558.282C42.0272 570.403 46.8584 582.02 55.4365 590.589C64.0146 599.158 75.6405 603.98 87.7684 604C99.9984 603.931 111.717 599.089 120.426 590.506C129.134 581.923 134.142 570.279 134.382 558.058C134.258 555.225 133.867 552.41 133.212 549.651L140.504 542.487C252.994 618.327 376.285 627.779 508.834 548.457L563.586 603.403L638.571 529.478L583.446 473.785C741.679 235.494 530.71 1.40577 340.547 7.10188L340.721 7.12676Z" fill="url(#paint1_linear_745_2783)" fill-opacity="0.6"/>
    <path d="M298.721 0.126756C452.848 57.9087 546.374 242.523 466.262 392.114L270.748 195.809L345.41 120.964L298.697 74.5245C286.281 86.1078 270.915 94.0524 254.282 97.4877C237.65 100.923 220.392 99.7167 204.399 94.0007L55.7979 242.622L139.966 326.422L196.062 270.58L391.501 466.487C295.859 518.971 163.286 502.43 65.479 400.845L18.1934 448.105C30.4608 466.596 44.122 484.125 59.0581 500.539C57.3407 502.294 55.5296 503.955 53.6327 505.514C50.9837 504.853 48.2881 504.396 45.5693 504.146C33.3165 504.49 21.6858 509.617 13.1685 518.427C4.65117 527.237 -0.0755002 539.031 0.000912246 551.282C0.0272326 563.403 4.85839 575.02 13.4365 583.589C22.0146 592.158 33.6405 596.98 45.7684 597C57.9984 596.931 69.7173 592.089 78.4255 583.506C87.1338 574.923 92.1421 563.279 92.382 551.058C92.2582 548.225 91.8666 545.41 91.2123 542.651L98.5043 535.487C210.994 611.327 334.285 620.779 466.834 541.457L521.586 596.403L596.571 522.478L541.446 466.785C699.678 228.494 488.71 -5.59423 298.547 0.101882L298.721 0.126756Z" fill="url(#paint2_linear_745_2783)"/>
    </g>
    <defs>
    <linearGradient id="paint0_linear_745_2783" x1="465.791" y1="26.7259" x2="86" y2="26.7259" gradientUnits="userSpaceOnUse">
    <stop stop-color="#D9264B"/>
    <stop offset="1" stop-color="#FB7549"/>
    </linearGradient>
    <linearGradient id="paint1_linear_745_2783" x1="421.791" y1="21.7259" x2="42" y2="21.7259" gradientUnits="userSpaceOnUse">
    <stop stop-color="#D9264B"/>
    <stop offset="1" stop-color="#FB7549"/>
    </linearGradient>
    <linearGradient id="paint2_linear_745_2783" x1="379.791" y1="14.7259" x2="-7.69622e-08" y2="14.7259" gradientUnits="userSpaceOnUse">
    <stop stop-color="#D9264B"/>
    <stop offset="1" stop-color="#FB7549"/>
    </linearGradient>
    </defs>
    </svg>
    