<svg width="60" height="60" viewBox="0 0 60 60" fill="none" xmlns="http://www.w3.org/2000/svg">
    <g clip-path="url(#clip0_745_2837)">
    <rect width="60" height="60" rx="12" fill="#FA734A" fill-opacity="0.12"/>
    <path d="M44.3631 26.5802C44.2021 26.0835 43.772 25.7212 43.2562 25.6471L34.7499 24.411L30.9453 16.7022C30.7144 16.2341 30.2377 15.9375 29.7155 15.9375C29.1934 15.9375 28.7167 16.2341 28.4858 16.7022L24.6812 24.411L16.1738 25.6471C15.6569 25.7223 15.228 26.0835 15.067 26.5802C14.906 27.077 15.0405 27.6214 15.4144 27.9858L21.5704 33.9861L20.1172 42.4585C20.0293 42.9733 20.24 43.4934 20.6627 43.8005C21.0853 44.1077 21.6445 44.1479 22.1074 43.9043L29.7166 39.9038L37.3248 43.9043C37.525 44.0092 37.7442 44.0621 37.9624 44.0621C38.2463 44.0621 38.5301 43.9742 38.7684 43.8005C39.1911 43.4934 39.4018 42.9733 39.3139 42.4585L37.8607 33.9861L44.0167 27.9858C44.3896 27.6214 44.5241 27.077 44.3631 26.5802Z" fill="#FA734A"/>
    </g>
    <defs>
    <clipPath id="clip0_745_2837">
    <rect width="60" height="60" fill="white"/>
    </clipPath>
    </defs>
    </svg>
    