<svg width="40" height="40" viewBox="0 0 40 40" fill="none" xmlns="http://www.w3.org/2000/svg">
<path fill-rule="evenodd" clip-rule="evenodd" d="M10.9868 12.08C10.9868 15.2006 12.5721 17.9537 14.9851 19.5719L7.85338 29.8267C6.81338 31.3333 7.93338 33.3333 9.80005 33.3333H30.2C31.9651 33.3333 33.0626 31.5451 32.2976 30.088C32.4698 29.5881 32.5601 29.0587 32.5601 28.52C32.5601 27.2434 32.053 26.0191 31.1503 25.1165C30.2806 24.2468 29.1124 23.7443 27.8865 23.7087L25.0147 19.5756C27.428 17.9601 29.0134 15.2091 29.0134 12.08V12.0667C29.0134 7.09334 24.9734 3.05334 20.0001 3.05334C15.0268 3.06668 10.9868 7.09334 10.9868 12.08ZM21.72 15.3867H18.28C17.5334 15.3867 16.9067 14.7733 16.9067 14.0133C16.9067 13.2667 17.52 12.64 18.28 12.64H21.72C22.48 12.64 23.0934 13.2533 23.0934 14.0133C23.0934 14.7733 22.48 15.3867 21.72 15.3867ZM24.5067 29.3733C24.64 29.84 24.88 30.2667 25.2 30.6267L25.96 30.5733C26.1067 30.5467 26.2534 30.5867 26.3867 30.6533C26.52 30.72 26.6134 30.8267 26.68 30.96L27.0134 31.6933C27.4667 31.7867 27.9334 31.7867 28.4 31.7067L28.7467 30.96C28.8134 30.8267 28.9067 30.72 29.04 30.6533C29.1734 30.5867 29.32 30.56 29.4667 30.5733L30.2934 30.6533C30.6 30.3067 30.84 29.9067 30.9734 29.4667L30.4934 28.84C30.32 28.6133 30.32 28.28 30.4934 28.0533L30.9334 27.48C30.7734 27.0133 30.5067 26.6 30.1467 26.2533L29.4667 26.32C29.32 26.3467 29.1734 26.3067 29.04 26.24C28.9067 26.1733 28.8 26.0667 28.7467 25.9333L28.4934 25.3733C27.9734 25.2667 27.44 25.28 26.92 25.4L26.68 25.9333C26.6134 26.0667 26.52 26.1733 26.3867 26.24C26.2534 26.3067 26.1067 26.3333 25.96 26.32L25.36 26.2533C24.9867 26.6133 24.7067 27.0533 24.5467 27.5467L24.92 28.04C25.0934 28.2667 25.0934 28.6 24.92 28.8267L24.5067 29.3733ZM28.88 28.52C28.88 29.12 28.3734 29.6 27.76 29.6C27.1334 29.6 26.64 29.12 26.64 28.52C26.64 27.92 27.1467 27.44 27.76 27.44C28.3734 27.44 28.88 27.92 28.88 28.52Z" fill="#D2D2D2"/>
</svg>
