<svg width="36" height="36" viewBox="0 0 36 36" fill="none" xmlns="http://www.w3.org/2000/svg">
<circle cx="18" cy="18" r="18" fill="#FDEBED"/>
<path d="M12.5652 12.5492C12.5612 13.8943 13.0795 15.1612 14.0262 16.1138C14.4908 16.5841 15.0441 16.9576 15.654 17.2126C16.0242 17.3674 16.4108 17.4766 16.8053 17.5386C17.0611 17.5789 17.3202 17.5993 17.5803 17.5993L17.591 17.5993L17.6016 17.5989L17.6173 17.5982L17.6173 17.5993C18.9558 17.5979 20.2391 17.0655 21.1855 16.119C22.132 15.1726 22.6643 13.8893 22.6658 12.5508L22.6658 12.5497C22.6643 11.2109 22.1318 9.92735 21.1851 8.98066L20.8316 9.33421L21.1851 8.98066C20.2385 8.03397 18.9549 7.50147 17.6161 7.5L17.6148 7.5C16.2762 7.50184 14.9928 8.03444 14.0462 8.98102C13.0998 9.92751 12.5672 11.2106 12.5652 12.5492ZM12.5652 12.5492C12.5652 12.549 12.5652 12.5489 12.5652 12.5487L13.0652 12.5503L12.5652 12.5496C12.5652 12.5495 12.5652 12.5493 12.5652 12.5492ZM25.751 25.3151V25.3148C25.7503 23.988 24.7677 22.7123 23.3444 21.7986C21.8975 20.8699 19.8964 20.2423 17.6255 20.2423C15.3541 20.2423 13.3523 20.8733 11.9052 21.8073C10.481 22.7264 9.5 24.0089 9.5 25.3414C9.5 26.5446 10.4026 27.3343 11.7508 27.8043C13.1055 28.2766 15.0796 28.5 17.6255 28.5C20.1717 28.5 22.1465 28.2741 23.5017 27.7968C24.8524 27.3211 25.751 26.5237 25.751 25.3151ZM17.6055 17.0983L17.6167 17.0978L17.6168 17.0978L17.6168 17.0993L17.6397 17.5973L17.6055 17.0983ZM18.0251 17.0805C18.0254 17.0805 18.0257 17.0805 18.026 17.0805L18.0251 17.0805Z" fill="#C7242F" stroke="#C7242F"/>
</svg>
