<svg width="40" height="40" viewBox="0 0 40 40" fill="none" xmlns="http://www.w3.org/2000/svg">
<path fill-rule="evenodd" clip-rule="evenodd" d="M3.2666 10.6V28.8C3.2666 31.6134 5.5466 33.8934 8.35994 33.8934H31.6399C34.4533 33.8934 36.7333 31.6134 36.7333 28.8V16.2267C36.7333 14.32 35.1866 12.7734 33.2799 12.7734H23.3733C22.0533 12.7734 20.8399 12.0134 20.2666 10.8134L18.6666 7.46671C18.0933 6.26671 16.8799 5.50671 15.5599 5.50671H8.35994C5.5466 5.50671 3.2666 7.78671 3.2666 10.6ZM7.94662 31.1067H31.5866C32.4933 31.1067 33.2266 30.3734 33.2266 29.4667C33.2266 28.56 32.4933 27.8267 31.5866 27.8267H7.94662C7.03995 27.8267 6.30662 28.56 6.30662 29.4667C6.29329 30.3734 7.03995 31.1067 7.94662 31.1067ZM31.6533 7.25339C33.48 7.25339 34.9867 8.74673 34.9867 10.5867C34.9867 10.8267 34.7867 11.0267 34.5467 11.0401H22.7467C22.48 11.0401 22.24 10.8801 22.12 10.6401L20.9733 8.25339C20.7467 7.78673 21.0933 7.25339 21.6 7.25339H31.6533Z" fill="#D2D2D2"/>
</svg>
