<svg width="40" height="40" viewBox="0 0 40 40" fill="none" xmlns="http://www.w3.org/2000/svg">
<path d="M13.6267 10.3733C13.6266 11.2278 13.7949 12.074 14.1219 12.8635C14.4488 13.653 14.9281 14.3703 15.5323 14.9746C15.8677 15.31 16.2379 15.6069 16.636 15.8607L16.1466 21.0933H10.7999C9.69322 21.0933 8.78655 22 8.78655 23.1067V27.3067C8.78655 28.4133 9.69322 29.32 10.7999 29.32H29.1999C30.3029 29.32 31.2072 28.4194 31.2132 27.3177C31.2133 27.3096 31.2133 27.3015 31.2133 27.2933L31.2132 23.1067C31.2132 21.9867 30.3066 21.0933 29.1999 21.0933H24.1066L23.6168 15.8695C24.0202 15.6138 24.3952 15.3139 24.7345 14.9746C25.3387 14.3703 25.8179 13.653 26.1449 12.8635C26.4719 12.074 26.6401 11.2278 26.64 10.3733C26.6401 9.51881 26.4719 8.67266 26.1449 7.88317C25.8179 7.09369 25.3387 6.37634 24.7345 5.77209C24.1303 5.16783 23.4129 4.68851 22.6235 4.36149C21.834 4.03447 20.9879 3.86615 20.1334 3.86615C19.2789 3.86615 18.4327 4.03447 17.6433 4.36149C16.8538 4.68851 16.1365 5.16783 15.5323 5.77209C14.9281 6.37634 14.4488 7.09369 14.1219 7.88317C13.7949 8.67266 13.6266 9.51881 13.6267 10.3733Z" fill="#C7242F"/>
<path d="M30.4132 30.96H9.58655C8.97322 30.96 8.46655 31.4667 8.46655 32.08C8.46655 32.6933 8.97322 33.2 9.58655 33.2H30.4132C31.0266 33.2 31.5332 32.6933 31.5332 32.08C31.5332 31.4667 31.0266 30.96 30.4132 30.96Z" fill="#C7242F"/>
</svg>
