<svg width="48" height="48" viewBox="0 0 48 48" fill="none" xmlns="http://www.w3.org/2000/svg">
<g id="&#232;&#191;&#148;&#229;&#155;&#158;">
<rect id="Rectangle 45" width="48" height="48" rx="8" fill="#FAFAFA"/>
<g id="&#232;&#191;&#148;&#229;&#155;&#158; ">
<path id="Vector 17" d="M15.5 24H32" stroke="#C7242F" stroke-width="2" stroke-linecap="round" stroke-linejoin="round"/>
<path id="Vector 16" d="M22.6616 17.4709C23.0425 17.071 23.0271 16.438 22.6272 16.0571C22.2272 15.6762 21.5942 15.6917 21.2134 16.0916L22.6616 17.4709ZM15.0625 24L14.3384 23.3103C13.9705 23.6966 13.9705 24.3034 14.3384 24.6897L15.0625 24ZM21.2134 31.9084C21.5942 32.3083 22.2272 32.3238 22.6272 31.9429C23.0271 31.562 23.0425 30.929 22.6616 30.5291L21.2134 31.9084ZM21.2134 16.0916L14.3384 23.3103L15.7866 24.6897L22.6616 17.4709L21.2134 16.0916ZM14.3384 24.6897L21.2134 31.9084L22.6616 30.5291L15.7866 23.3103L14.3384 24.6897Z" fill="#C7242F"/>
</g>
</g>
</svg>
