<svg width="40" height="40" viewBox="0 0 40 40" fill="none" xmlns="http://www.w3.org/2000/svg">
<path fill-rule="evenodd" clip-rule="evenodd" d="M26.9067 15.1333C26.9201 16.36 25.9334 17.3467 24.7067 17.3467H15.2934C14.0801 17.3467 13.0934 16.36 13.0934 15.1467V8.02666C13.0934 6.81333 14.0801 5.82666 15.2934 5.82666H24.7067C25.9201 5.82666 26.9067 6.81333 26.9067 8.02666V15.1333ZM16.5068 31.32H7.08013C5.86679 31.32 4.88013 30.3333 4.88013 29.12V22C4.88013 20.7867 5.86679 19.8 7.08013 19.8H16.4935C17.7068 19.8 18.6935 20.7867 18.6935 22V29.1067C18.7068 30.3333 17.7201 31.32 16.5068 31.32ZM32.9201 31.32H23.5068C22.2935 31.32 21.3068 30.3333 21.3068 29.12V22C21.3068 20.7867 22.2935 19.8 23.5068 19.8H32.9201C34.1335 19.8 35.1201 20.7867 35.1201 22V29.1067C35.1201 30.3333 34.1335 31.32 32.9201 31.32Z" fill="#D2D2D2"/>
</svg>
