<svg width="40" height="40" viewBox="0 0 40 40" fill="none" xmlns="http://www.w3.org/2000/svg">
<path fill-rule="evenodd" clip-rule="evenodd" d="M10.9868 12.0799C10.9868 15.2004 12.5721 17.9535 14.9851 19.5717L7.85338 29.8266C6.81338 31.3332 7.93338 33.3332 9.80005 33.3332H30.2C31.9651 33.3332 33.0626 31.545 32.2976 30.0878C32.4698 29.588 32.5601 29.0586 32.5601 28.5199C32.5601 27.2433 32.053 26.019 31.1503 25.1163C30.2806 24.2467 29.1124 23.7441 27.8865 23.7086L25.0147 19.5754C27.428 17.96 29.0134 15.209 29.0134 12.0799V12.0666C29.0134 7.09322 24.9734 3.05322 20.0001 3.05322C15.0268 3.06656 10.9868 7.09322 10.9868 12.0799ZM21.72 15.3865H18.28C17.5334 15.3865 16.9067 14.7732 16.9067 14.0132C16.9067 13.2665 17.52 12.6399 18.28 12.6399H21.72C22.48 12.6399 23.0934 13.2532 23.0934 14.0132C23.0934 14.7732 22.48 15.3865 21.72 15.3865ZM24.5067 29.3732C24.64 29.8399 24.88 30.2665 25.2 30.6265L25.96 30.5732C26.1067 30.5465 26.2534 30.5865 26.3867 30.6532C26.52 30.7199 26.6134 30.8265 26.68 30.9599L27.0134 31.6932C27.4667 31.7865 27.9334 31.7865 28.4 31.7065L28.7467 30.9599C28.8134 30.8265 28.9067 30.7199 29.04 30.6532C29.1734 30.5865 29.32 30.5599 29.4667 30.5732L30.2934 30.6532C30.6 30.3065 30.84 29.9065 30.9734 29.4665L30.4934 28.8399C30.32 28.6132 30.32 28.2799 30.4934 28.0532L30.9334 27.4799C30.7734 27.0132 30.5067 26.5999 30.1467 26.2532L29.4667 26.3199C29.32 26.3465 29.1734 26.3065 29.04 26.2399C28.9067 26.1732 28.8 26.0665 28.7467 25.9332L28.4934 25.3732C27.9734 25.2665 27.44 25.2799 26.92 25.3999L26.68 25.9332C26.6134 26.0665 26.52 26.1732 26.3867 26.2399C26.2534 26.3065 26.1067 26.3332 25.96 26.3199L25.36 26.2532C24.9867 26.6132 24.7067 27.0532 24.5467 27.5465L24.92 28.0399C25.0934 28.2665 25.0934 28.5999 24.92 28.8265L24.5067 29.3732ZM28.88 28.5199C28.88 29.1199 28.3734 29.5999 27.76 29.5999C27.1334 29.5999 26.64 29.1199 26.64 28.5199C26.64 27.9199 27.1467 27.4399 27.76 27.4399C28.3734 27.4399 28.88 27.9199 28.88 28.5199Z" fill="#C7242F"/>
</svg>
