<svg xmlns="http://www.w3.org/2000/svg" width="40" height="40" viewBox="0 0 40 40" fill="none">
  <path d="M13.6267 10.3734C13.6266 11.2279 13.7949 12.074 14.1219 12.8635C14.4488 13.653 14.9281 14.3704 15.5323 14.9746C15.8677 15.31 16.2379 15.607 16.636 15.8607L16.1466 21.0934H10.7999C9.69322 21.0934 8.78655 22 8.78655 23.1067V27.3067C8.78655 28.4134 9.69322 29.32 10.7999 29.32H29.1999C30.3029 29.32 31.2072 28.4194 31.2132 27.3178C31.2133 27.3097 31.2133 27.3015 31.2133 27.2934L31.2132 23.1067C31.2132 21.9867 30.3066 21.0934 29.1999 21.0934H24.1066L23.6168 15.8696C24.0202 15.6139 24.3952 15.3139 24.7345 14.9746C25.3387 14.3704 25.8179 13.653 26.1449 12.8635C26.4719 12.074 26.6401 11.2279 26.64 10.3734C26.6401 9.51887 26.4719 8.67272 26.1449 7.88323C25.8179 7.09375 25.3387 6.3764 24.7345 5.77215C24.1303 5.16789 23.4129 4.68857 22.6235 4.36155C21.834 4.03453 20.9879 3.86621 20.1334 3.86621C19.2789 3.86621 18.4327 4.03453 17.6433 4.36155C16.8538 4.68857 16.1365 5.16789 15.5323 5.77215C14.9281 6.3764 14.4488 7.09375 14.1219 7.88323C13.7949 8.67272 13.6266 9.51887 13.6267 10.3734Z" fill="#D2D2D2"/>
  <path d="M30.4132 30.9601H9.58655C8.97322 30.9601 8.46655 31.4667 8.46655 32.0801C8.46655 32.6934 8.97322 33.2001 9.58655 33.2001H30.4132C31.0266 33.2001 31.5332 32.6934 31.5332 32.0801C31.5332 31.4667 31.0266 30.9601 30.4132 30.9601Z" fill="#D2D2D2"/>
</svg>