<svg width="52" height="52" viewBox="0 0 52 52" fill="none" xmlns="http://www.w3.org/2000/svg">
<g id="&#232;&#191;&#148;&#229;&#155;&#158;">
<rect id="Rectangle 45" width="52" height="52" rx="8" fill="white"/>
<g id="&#232;&#191;&#148;&#229;&#155;&#158; ">
<path id="Vector 17" d="M16.7917 26H34.6667" stroke="#C7242F" stroke-width="2" stroke-linecap="round" stroke-linejoin="round"/>
<path id="Vector 16" d="M24.4898 18.8693C24.8707 18.4694 24.8553 17.8364 24.4553 17.4555C24.0554 17.0747 23.4224 17.0901 23.0415 17.49L24.4898 18.8693ZM16.3177 26L15.5936 25.3103C15.2258 25.6966 15.2258 26.3034 15.5936 26.6897L16.3177 26ZM23.0415 34.51C23.4224 34.9099 24.0554 34.9253 24.4553 34.5445C24.8553 34.1636 24.8707 33.5306 24.4898 33.1307L23.0415 34.51ZM23.0415 17.49L15.5936 25.3103L17.0419 26.6897L24.4898 18.8693L23.0415 17.49ZM15.5936 26.6897L23.0415 34.51L24.4898 33.1307L17.0419 25.3103L15.5936 26.6897Z" fill="#C7242F"/>
</g>
</g>
</svg>
