<svg width="28" height="28" viewBox="0 0 28 28" fill="none" xmlns="http://www.w3.org/2000/svg">
<g id="&#228;&#190;&#191;&#231;&#173;&#190; ">
<path id="Vector" d="M21.3032 25.3722H5.7534C3.68 25.3722 2 23.6922 2 21.6188V8.05418C2 5.98078 3.68 4.30078 5.7534 4.30078H21.3018C23.3752 4.30078 25.0552 5.98078 25.0552 8.05418V21.6188C25.0566 23.6922 23.3752 25.3722 21.3032 25.3722Z" fill="#ACACAC"/>
<path id="Vector_2" d="M8.05921 7.9402C7.44041 7.9402 6.93921 7.439 6.93921 6.8202V3.12C6.93921 2.5012 7.44041 2 8.05921 2C8.67801 2 9.17921 2.5012 9.17921 3.12V6.8202C9.17921 7.439 8.67801 7.9402 8.05921 7.9402Z" fill="#979797"/>
<path id="Vector_3" d="M6.93921 4.30078V6.82078C6.93921 7.43958 7.44041 7.94078 8.05921 7.94078C8.67801 7.94078 9.17921 7.43958 9.17921 6.82078V4.30078H6.93921Z" fill="#979797"/>
<path id="Vector_4" d="M18.3269 7.9402C17.7081 7.9402 17.2069 7.439 17.2069 6.8202V3.12C17.2069 2.5012 17.7081 2 18.3269 2C18.9457 2 19.4469 2.5012 19.4469 3.12V6.8202C19.4469 7.439 18.9457 7.9402 18.3269 7.9402Z" fill="#979797"/>
<path id="Vector_5" d="M17.2069 4.30078V6.82078C17.2069 7.43958 17.7081 7.94078 18.3269 7.94078C18.9457 7.94078 19.4469 7.43958 19.4469 6.82078V4.30078H17.2069Z" fill="#979797"/>
<path id="Vector_6" d="M19.8276 13.3211H6.98682C6.36802 13.3211 5.86682 12.8199 5.86682 12.2011C5.86682 11.5823 6.36802 11.0811 6.98682 11.0811H19.8276C20.4464 11.0811 20.9476 11.5823 20.9476 12.2011C20.9476 12.8199 20.4464 13.3211 19.8276 13.3211ZM19.8276 19.1731H6.98682C6.36802 19.1731 5.86682 18.6719 5.86682 18.0531C5.86682 17.4343 6.36802 16.9331 6.98682 16.9331H19.8276C20.4464 16.9331 20.9476 17.4343 20.9476 18.0531C20.9476 18.6719 20.4464 19.1731 19.8276 19.1731Z" fill="white"/>
</g>
</svg>
