<?xml version="1.0" standalone="no"?><!DOCTYPE svg PUBLIC "-//W3C//DTD SVG 1.1//EN" "http://www.w3.org/Graphics/SVG/1.1/DTD/svg11.dtd"><svg t="1689611809140" class="icon" viewBox="0 0 1024 1024" version="1.1" xmlns="http://www.w3.org/2000/svg" p-id="6080" width="64" height="64" xmlns:xlink="http://www.w3.org/1999/xlink"><path d="M533.333333 1023.99998a21.266666 21.266666 0 0 1-15.086666-6.246667l-85.333332-85.333331a21.333333 21.333333 0 0 1 30.173333-30.173333l48.913332 48.919999V789.333318a21.333333 21.333333 0 0 1 42.666666 0v161.83333l48.913332-48.919999a21.333333 21.333333 0 0 1 30.173333 30.173333l-85.333332 85.333331A21.266666 21.266666 0 0 1 533.333333 1023.99998z m426.666658-298.666661H106.666675a21.333333 21.333333 0 0 1 0-42.666666h853.333316a21.333333 21.333333 0 0 1 0 42.666666z m0-170.666663H106.666675a21.333333 21.333333 0 0 1 0-42.666666h853.333316a21.333333 21.333333 0 0 1 0 42.666666z m0-170.666663H106.666675a21.333333 21.333333 0 0 1 0-42.666666h853.333316a21.333333 21.333333 0 0 1 0 42.666666zM533.333333 298.666661a21.333333 21.333333 0 0 1-21.333333-21.333333V115.499998l-48.913332 48.919999a21.333333 21.333333 0 0 1-30.173333-30.173333l85.333332-85.333332a21.333333 21.333333 0 0 1 30.173332 0l85.333332 85.333332a21.333333 21.333333 0 0 1-30.173333 30.173333L554.666666 115.499998V277.333328a21.333333 21.333333 0 0 1-21.333333 21.333333z" fill="#2c2c2c" p-id="6081" data-spm-anchor-id="a313x.7781069.0.i1" class="selected"></path></svg>